{"glyphs":{"0":{"ha":868,"x_min":0,"x_max":0,"o":"m 433 -12 b 819 364 635 -12 819 144 b 433 738 819 585 635 738 b 49 364 233 738 49 585 b 433 -12 49 144 233 -12 z m 433 154 b 247 364 329 154 247 235 b 433 571 247 493 329 571 b 621 364 539 571 621 493 b 433 154 621 235 539 154 z "},"1":{"ha":460,"x_min":0,"x_max":0,"o":"m 175 0 l 365 0 l 365 725 l 36 725 l 36 569 l 175 569 z "},"2":{"ha":668,"x_min":0,"x_max":0,"o":"m 29 0 l 624 0 l 624 160 l 463 160 b 367 153 438 160 367 153 b 450 217 367 153 424 189 l 471 239 b 617 501 556 329 617 413 b 333 738 617 622 528 738 b 39 504 190 738 72 653 l 214 457 b 335 568 235 518 271 568 b 422 489 388 568 422 536 b 306 310 422 429 385 393 l 29 17 z "},"3":{"ha":728,"x_min":0,"x_max":0,"o":"m 347 -143 b 682 163 572 -143 682 8 b 458 432 682 315 575 408 b 496 474 458 432 476 447 l 668 710 l 668 725 l 100 725 l 100 569 l 319 569 b 404 576 360 569 404 576 b 354 522 404 576 376 553 l 193 299 l 207 282 b 326 307 233 296 265 307 b 483 167 414 307 483 257 b 347 24 483 76 424 24 b 185 136 271 24 215 57 l 22 51 b 347 -143 74 -53 171 -143 z "},"4":{"ha":769,"x_min":0,"x_max":0,"o":"m 625 144 l 625 733 l 606 733 l 35 128 l 35 0 l 436 0 l 436 -131 l 625 -131 l 625 0 l 721 0 l 721 144 z m 436 144 l 311 144 b 239 140 272 144 239 140 b 296 190 239 140 269 163 l 396 296 b 443 353 421 322 443 353 b 436 267 443 353 436 297 z "},"5":{"ha":704,"x_min":0,"x_max":0,"o":"m 333 -143 b 658 149 554 -143 658 -7 b 368 438 658 308 543 438 b 267 417 326 438 285 428 l 267 569 l 583 569 l 583 725 l 111 725 l 111 218 l 128 211 b 313 279 169 244 229 279 b 458 150 408 279 458 226 b 331 24 458 79 411 24 b 186 122 247 24 207 68 l 22 40 b 333 -143 61 -54 163 -143 z "},"6":{"ha":739,"x_min":0,"x_max":0,"o":"m 371 -12 b 690 281 547 -12 690 99 b 425 550 690 447 574 550 b 321 526 383 550 351 542 b 408 611 321 526 378 569 l 579 846 l 368 846 l 165 565 b 49 276 92 464 49 381 b 371 -12 49 104 196 -12 z m 369 153 b 240 281 288 153 240 214 b 369 408 240 347 288 408 b 499 281 451 408 499 347 b 369 153 499 214 451 153 z "},"7":{"ha":675,"x_min":0,"x_max":0,"o":"m 81 -131 l 274 -131 l 639 710 l 639 725 l 40 725 l 40 569 l 388 569 z "},"8":{"ha":750,"x_min":0,"x_max":0,"o":"m 375 -14 b 701 263 567 -14 701 100 b 539 486 701 376 635 450 b 636 643 593 517 636 565 b 376 858 636 747 546 858 b 114 643 208 858 114 747 b 213 486 114 565 158 517 b 49 263 117 450 49 376 b 375 -14 49 100 186 -14 z m 376 554 b 299 629 333 554 299 585 b 376 704 299 675 333 704 b 451 629 419 704 451 675 b 376 554 451 585 419 554 z m 375 153 b 246 278 294 153 246 207 b 375 408 246 349 294 408 b 504 278 456 408 504 349 b 375 153 504 207 456 153 z "},"9":{"ha":739,"x_min":0,"x_max":0,"o":"m 158 -131 l 369 -131 l 574 160 b 690 449 649 267 690 344 b 368 738 690 631 543 738 b 49 444 192 738 49 626 b 322 174 49 278 169 174 b 418 199 363 174 388 183 b 331 114 418 199 363 160 z m 369 317 b 240 444 288 317 240 378 b 369 572 240 511 288 572 b 499 444 451 572 499 511 b 369 317 499 378 451 317 z "},"\u0000":{"ha":694,"x_min":0,"x_max":0,"o":""}," ":{"ha":307,"x_min":0,"x_max":0,"o":""},"!":{"ha":393,"x_min":0,"x_max":0,"o":"m 122 321 l 271 321 l 301 944 l 92 944 z m 197 -8 b 314 110 260 -8 314 40 b 197 226 314 178 260 226 b 79 110 133 226 79 178 b 197 -8 79 40 133 -8 z "},"\"":{"ha":567,"x_min":0,"x_max":0,"o":"m 338 601 l 496 601 l 517 944 l 315 944 z m 71 601 l 229 601 l 250 944 l 50 944 z "},"#":{"ha":731,"x_min":0,"x_max":0,"o":"m 85 197 l 231 197 l 265 338 l 369 338 l 335 197 l 481 197 l 515 338 l 625 338 l 625 479 l 551 479 l 578 583 l 686 583 l 686 725 l 613 725 l 646 860 l 500 860 l 465 725 l 361 725 l 396 860 l 250 860 l 215 725 l 106 725 l 106 583 l 181 583 l 154 479 l 44 479 l 44 338 l 119 338 z m 301 479 l 328 583 l 432 583 l 406 479 z "},"$":{"ha":697,"x_min":0,"x_max":0,"o":"m 303 -10 l 303 -161 l 396 -161 l 396 -11 b 654 215 572 -1 654 79 b 396 449 654 332 565 410 l 396 588 b 488 519 444 572 474 542 l 608 611 b 396 733 571 660 501 717 l 396 876 l 303 876 l 303 736 b 61 522 135 726 61 626 b 303 296 61 418 126 338 b 303 136 303 297 303 136 b 157 238 222 149 183 192 l 19 160 b 303 -10 57 88 140 4 z m 303 596 l 303 471 b 231 538 240 488 231 507 b 303 596 231 567 249 590 z m 396 133 l 396 275 b 481 196 467 256 481 226 b 396 133 481 168 465 142 z "},"%":{"ha":1188,"x_min":0,"x_max":0,"o":"m 263 301 b 489 519 386 301 489 392 b 263 738 489 646 386 738 b 35 519 138 738 35 646 b 263 301 35 392 138 301 z m 272 0 l 457 0 l 915 725 l 731 725 z m 926 -12 b 1153 206 1050 -12 1153 78 b 926 424 1153 332 1050 424 b 699 206 801 424 699 332 b 926 -12 699 78 801 -12 z m 263 442 b 190 519 226 442 190 471 b 263 597 190 568 226 597 b 335 519 299 597 335 568 b 263 442 335 471 299 442 z m 926 128 b 854 206 890 128 854 157 b 926 283 854 254 890 283 b 999 206 963 283 999 254 b 926 128 999 157 963 128 z "},"&":{"ha":965,"x_min":0,"x_max":0,"o":"m 525 510 b 697 736 644 572 697 646 b 453 956 697 868 603 956 b 203 732 296 956 203 854 b 268 544 203 668 221 608 b 50 265 119 471 50 401 b 417 -12 50 104 182 -12 b 660 58 506 -12 589 13 l 707 0 l 936 0 l 789 182 b 882 501 847 267 882 375 l 707 501 b 674 325 707 432 694 374 z m 433 622 l 431 626 b 381 735 404 660 381 686 b 456 806 381 776 413 806 b 528 738 499 806 528 781 b 433 622 528 694 503 661 z m 554 189 b 417 156 513 167 467 156 b 253 281 303 156 253 201 b 356 435 253 342 274 390 z "},"’":{"ha":336,"x_min":0,"x_max":0,"o":"m 65 583 l 156 583 l 239 725 b 281 844 264 768 281 801 b 167 954 281 907 228 954 b 56 843 108 954 56 907 b 118 742 56 794 85 757 z "},"(":{"ha":478,"x_min":0,"x_max":0,"o":"m 331 -190 l 443 -100 b 265 404 332 35 265 185 b 443 908 265 625 332 774 l 331 999 b 68 404 208 881 68 693 b 331 -190 68 114 208 -72 z "},")":{"ha":478,"x_min":0,"x_max":0,"o":"m 147 -190 b 410 404 269 -72 410 115 b 147 999 410 694 269 881 l 35 908 b 213 404 146 774 213 624 b 35 -100 213 183 146 35 z "},"*":{"ha":590,"x_min":0,"x_max":0,"o":"m 213 500 l 376 500 l 336 654 l 450 540 l 532 679 l 371 722 l 532 765 l 450 904 l 336 790 l 376 944 l 213 944 l 253 790 l 139 904 l 58 765 l 215 722 l 58 679 l 139 540 l 253 654 z "},"+":{"ha":571,"x_min":0,"x_max":0,"o":"m 201 135 l 369 135 l 369 288 l 517 288 l 517 451 l 369 451 l 369 604 l 201 604 l 201 451 l 54 451 l 54 288 l 201 288 z "},",":{"ha":346,"x_min":0,"x_max":0,"o":"m 72 -160 l 167 -160 l 249 -8 b 290 110 269 29 290 64 b 174 226 290 178 236 226 b 56 113 110 226 56 178 b 125 7 56 63 83 26 z "},"-":{"ha":419,"x_min":0,"x_max":0,"o":"m 50 253 l 369 253 l 369 419 l 50 419 z "},".":{"ha":346,"x_min":0,"x_max":0,"o":"m 174 -8 b 290 110 236 -8 290 40 b 174 226 290 178 236 226 b 56 110 110 226 56 178 b 174 -8 56 40 110 -8 z "},"/":{"ha":561,"x_min":0,"x_max":0,"o":"m -22 -178 l 161 -178 l 549 1003 l 365 1003 z "},":":{"ha":360,"x_min":0,"x_max":0,"o":"m 181 311 b 297 429 243 311 297 360 b 181 546 297 497 243 546 b 63 429 117 546 63 497 b 181 311 63 360 117 311 z m 181 -8 b 297 110 243 -8 297 40 b 181 226 297 178 243 226 b 63 110 117 226 63 178 b 181 -8 63 40 117 -8 z "},";":{"ha":360,"x_min":0,"x_max":0,"o":"m 181 311 b 297 429 243 311 297 360 b 181 546 297 497 243 546 b 63 429 117 546 63 497 b 181 311 63 360 117 311 z m 79 -160 l 174 -160 l 256 -8 b 297 110 276 29 297 64 b 181 226 297 178 243 226 b 63 113 117 226 63 178 b 132 7 63 63 90 26 z "},"<":{"ha":497,"x_min":0,"x_max":0,"o":"m 446 100 l 446 263 l 297 338 l 446 413 l 446 575 l 32 346 l 32 332 z "},"=":{"ha":563,"x_min":0,"x_max":0,"o":"m 50 388 l 513 388 l 513 547 l 50 547 z m 50 160 l 513 160 l 513 319 l 50 319 z "},">":{"ha":497,"x_min":0,"x_max":0,"o":"m 51 100 l 465 329 l 465 343 l 51 575 l 51 413 l 200 338 l 51 263 z "},"?":{"ha":713,"x_min":0,"x_max":0,"o":"m 242 321 l 417 321 l 417 403 b 653 674 569 425 653 525 b 344 957 653 819 543 957 b 47 788 199 957 97 897 l 197 700 b 344 790 231 756 268 790 b 461 674 417 790 461 732 b 306 542 461 604 419 542 l 242 542 z m 328 -8 b 444 110 390 -8 444 40 b 328 226 444 178 390 226 b 210 110 264 226 210 178 b 328 -8 210 40 264 -8 z "},"@":{"ha":1285,"x_min":0,"x_max":0,"o":"m 663 -287 b 939 -237 774 -287 851 -272 l 881 -107 b 660 -146 814 -131 736 -146 b 225 275 378 -146 225 18 b 654 703 225 533 400 703 b 1072 325 910 703 1072 588 b 981 129 1072 186 1039 129 b 917 217 935 129 917 156 l 917 529 l 736 529 l 739 460 b 589 543 711 510 667 543 b 349 264 454 543 349 426 b 592 -12 349 100 456 -12 b 781 100 672 -12 740 21 b 974 -7 814 19 882 -7 b 1231 328 1138 -7 1231 111 b 654 844 1231 639 999 844 b 54 274 338 844 54 617 b 663 -287 54 -78 315 -287 z m 644 139 b 540 264 581 139 540 189 b 644 389 540 339 581 389 b 740 264 700 389 740 333 b 644 139 740 194 700 139 z "},"A":{"ha":922,"x_min":0,"x_max":0,"o":"m 29 0 l 217 0 l 261 107 l 644 107 l 689 0 l 893 0 l 461 953 l 444 953 z m 326 269 l 394 433 b 450 603 422 500 450 603 b 507 433 450 603 479 500 l 575 269 z "},"B":{"ha":847,"x_min":0,"x_max":0,"o":"m 99 0 l 481 0 b 797 292 678 0 797 124 b 606 526 797 410 735 496 b 739 700 688 553 739 613 b 464 944 739 833 640 944 l 99 944 z m 293 596 l 293 774 l 453 774 b 547 685 513 774 547 739 b 443 596 547 631 506 596 z m 293 171 l 293 431 l 461 431 b 601 301 550 431 601 378 b 472 171 601 224 551 171 z "},"C":{"ha":993,"x_min":0,"x_max":0,"o":"m 553 -12 b 947 196 735 -12 865 68 l 796 300 b 553 161 743 219 675 161 b 267 472 382 161 267 296 b 553 781 267 649 382 781 b 782 657 661 781 738 729 l 931 763 b 553 956 846 894 724 956 b 67 472 282 956 67 751 b 553 -12 67 193 282 -12 z "},"D":{"ha":951,"x_min":0,"x_max":0,"o":"m 99 0 l 389 0 b 886 472 681 0 886 193 b 389 944 886 751 679 944 l 99 944 z m 293 171 l 293 774 l 379 774 b 685 472 589 774 685 649 b 379 171 685 296 589 171 z "},"E":{"ha":825,"x_min":0,"x_max":0,"o":"m 99 0 l 743 0 l 743 171 l 293 171 l 293 307 l 672 307 l 672 474 l 293 474 l 293 774 l 724 774 l 724 944 l 99 944 z "},"F":{"ha":772,"x_min":0,"x_max":0,"o":"m 99 0 l 293 0 l 293 288 l 669 288 l 669 461 l 293 461 l 293 774 l 707 774 l 707 944 l 99 944 z "},"G":{"ha":1026,"x_min":0,"x_max":0,"o":"m 579 -12 b 942 97 751 -12 888 53 l 942 506 l 536 506 l 536 335 l 764 335 l 764 196 b 579 161 715 172 640 161 b 267 472 381 161 267 296 b 549 781 267 649 378 781 b 760 694 658 781 713 743 l 892 825 b 549 956 814 914 703 956 b 67 472 264 956 67 751 b 579 -12 67 193 271 -12 z "},"H":{"ha":990,"x_min":0,"x_max":0,"o":"m 99 0 l 293 0 l 293 288 l 697 288 l 697 0 l 892 0 l 892 944 l 697 944 l 697 461 l 293 461 l 293 944 l 99 944 z "},"I":{"ha":399,"x_min":0,"x_max":0,"o":"m 103 0 l 297 0 l 297 944 l 103 944 z "},"J":{"ha":689,"x_min":0,"x_max":0,"o":"m 310 -12 b 600 281 482 -12 600 79 l 600 944 l 406 944 l 406 283 b 301 161 406 186 365 161 b 176 261 235 161 207 207 l 18 165 b 310 -12 64 68 154 -12 z "},"K":{"ha":901,"x_min":0,"x_max":0,"o":"m 281 460 b 293 618 286 507 293 572 l 293 944 l 99 944 l 99 0 l 293 0 l 293 261 l 385 371 l 636 0 l 871 0 l 515 517 l 832 944 l 611 944 l 361 607 b 281 460 332 568 303 510 z "},"L":{"ha":779,"x_min":0,"x_max":0,"o":"m 99 0 l 721 0 l 721 171 l 293 171 l 293 944 l 99 944 z "},"M":{"ha":1153,"x_min":0,"x_max":0,"o":"m 99 0 l 285 0 l 285 354 b 278 519 285 418 278 519 b 379 386 278 519 335 436 l 567 176 l 585 176 l 772 386 b 874 519 817 436 874 519 b 867 354 874 519 867 418 l 867 0 l 1054 0 l 1054 954 l 1038 954 l 579 443 l 114 954 l 99 954 z "},"N":{"ha":974,"x_min":0,"x_max":0,"o":"m 856 -8 l 875 -8 l 875 944 l 693 944 l 693 549 b 706 376 693 483 706 376 b 594 506 706 376 640 463 l 118 953 l 99 953 l 99 0 l 281 0 l 281 396 b 267 568 281 464 267 568 b 379 439 267 568 332 483 z "},"O":{"ha":1111,"x_min":0,"x_max":0,"o":"m 556 -12 b 1044 472 828 -12 1044 193 b 556 957 1044 751 828 957 b 67 472 283 957 67 751 b 556 -12 67 193 283 -12 z m 556 161 b 267 472 383 161 267 296 b 556 783 267 649 383 783 b 844 472 728 783 844 649 b 556 161 844 296 728 161 z "},"P":{"ha":835,"x_min":0,"x_max":0,"o":"m 99 0 l 293 0 l 293 215 l 360 215 b 782 579 622 215 782 351 b 360 944 782 807 624 944 l 99 944 z m 293 386 l 293 774 l 354 774 b 582 579 510 774 582 710 b 354 386 582 450 513 386 z "},"Q":{"ha":1111,"x_min":0,"x_max":0,"o":"m 911 133 b 1044 472 994 219 1044 338 b 556 957 1044 751 828 957 b 67 472 283 957 67 751 b 556 -12 67 193 283 -12 b 774 36 635 -12 708 6 l 914 -125 l 1043 -18 z m 651 175 b 556 161 622 165 590 161 b 267 472 383 161 267 296 b 556 783 267 649 383 783 b 844 472 728 783 844 649 b 789 274 844 393 825 325 l 669 411 l 539 304 z "},"R":{"ha":853,"x_min":0,"x_max":0,"o":"m 600 294 b 782 588 717 347 782 440 b 360 944 782 818 624 944 l 99 944 l 99 0 l 293 0 l 293 235 l 360 235 b 415 239 378 235 397 236 l 571 0 l 796 0 z m 293 404 l 293 774 l 354 774 b 582 588 510 774 582 721 b 354 404 582 454 513 404 z "},"S":{"ha":746,"x_min":0,"x_max":0,"o":"m 371 -12 b 693 258 556 -12 693 83 b 435 564 693 421 600 493 l 386 585 b 267 703 303 621 267 644 b 360 786 267 750 303 786 b 485 703 415 786 451 763 l 636 800 b 360 956 572 913 483 956 b 75 699 186 956 75 844 b 308 406 75 540 168 465 l 357 385 b 499 256 446 346 499 322 b 367 160 499 200 447 160 b 175 278 271 160 217 210 l 17 186 b 371 -12 74 74 190 -12 z "},"T":{"ha":822,"x_min":0,"x_max":0,"o":"m 314 0 l 508 0 l 508 774 l 778 774 l 778 944 l 44 944 l 44 774 l 314 774 z "},"U":{"ha":953,"x_min":0,"x_max":0,"o":"m 478 -12 b 858 342 693 -12 858 103 l 858 944 l 664 944 l 664 353 b 478 163 664 215 606 163 b 289 353 349 163 289 215 l 289 944 l 94 944 l 94 342 b 478 -12 94 103 260 -12 z "},"V":{"ha":922,"x_min":0,"x_max":0,"o":"m 460 -8 l 479 -8 l 893 944 l 704 944 l 546 581 b 474 367 510 499 474 367 b 400 581 474 367 436 500 l 238 944 l 29 944 z "},"W":{"ha":1331,"x_min":0,"x_max":0,"o":"m 379 -8 l 399 -8 l 619 447 b 674 588 644 500 674 588 b 726 447 674 588 701 500 l 939 -8 l 958 -8 l 1301 944 l 1113 944 l 976 565 b 926 394 953 500 926 394 b 868 565 926 394 899 501 l 683 953 l 664 953 l 482 565 b 424 394 451 501 424 394 b 374 565 424 394 397 500 l 236 944 l 31 944 z "},"X":{"ha":917,"x_min":0,"x_max":0,"o":"m 38 0 l 242 0 l 388 251 b 446 385 417 301 446 385 b 511 251 446 385 482 300 l 660 0 l 882 0 l 568 518 l 821 944 l 614 944 l 522 782 b 468 653 494 733 468 653 b 406 782 468 653 433 735 l 310 944 l 89 944 l 346 519 z "},"Y":{"ha":947,"x_min":0,"x_max":0,"o":"m 388 0 l 583 0 l 583 314 l 919 944 l 721 944 l 561 640 b 488 461 525 572 488 461 b 411 640 488 461 447 574 l 244 944 l 29 944 l 388 300 z "},"Z":{"ha":819,"x_min":0,"x_max":0,"o":"m 38 0 l 747 0 l 747 171 l 339 171 l 771 928 l 771 944 l 114 944 l 114 774 l 471 774 l 38 17 z "},"[":{"ha":468,"x_min":0,"x_max":0,"o":"m 83 -178 l 426 -178 l 426 -19 l 271 -19 l 271 844 l 426 844 l 426 1003 l 83 1003 z "},"\\":{"ha":561,"x_min":0,"x_max":0,"o":"m 400 -178 l 583 -178 l 196 1003 l 13 1003 z "},"]":{"ha":468,"x_min":0,"x_max":0,"o":"m 42 -178 l 385 -178 l 385 1003 l 42 1003 l 42 844 l 197 844 l 197 -19 l 42 -19 z "},"^":{"ha":610,"x_min":0,"x_max":0,"o":"m 75 621 l 225 621 l 304 719 l 385 621 l 535 621 l 313 954 l 297 954 z "},"_":{"ha":393,"x_min":0,"x_max":0,"o":"m -3 -178 l 396 -178 l 396 -11 l -3 -11 z "},"‘":{"ha":336,"x_min":0,"x_max":0,"o":"m 169 574 b 281 685 228 574 281 621 b 218 786 281 733 251 771 l 271 944 l 181 944 l 97 803 b 56 683 72 760 56 726 b 169 574 56 621 108 574 z "},"a":{"ha":678,"x_min":0,"x_max":0,"o":"m 422 351 l 285 351 b 43 174 139 351 43 300 b 251 -12 43 36 143 -12 b 426 82 331 -12 382 14 l 422 0 l 608 0 l 608 336 b 342 604 608 522 493 604 b 85 507 203 604 140 561 l 189 396 b 324 450 215 419 253 450 b 422 351 386 450 419 419 z m 422 240 l 422 217 b 307 133 422 167 383 133 b 226 186 254 133 226 153 b 294 240 226 219 247 240 z "},"b":{"ha":765,"x_min":0,"x_max":0,"o":"m 443 -12 b 711 297 588 -12 711 115 b 447 604 711 479 592 604 b 261 508 357 604 300 567 l 261 1003 l 74 1003 l 74 0 l 261 0 l 257 86 b 443 -12 290 24 353 -12 z m 389 151 b 256 297 308 151 256 204 b 389 439 256 385 308 439 b 518 297 468 439 518 385 b 389 151 518 204 468 151 z "},"c":{"ha":663,"x_min":0,"x_max":0,"o":"m 376 -12 b 622 94 494 -12 564 29 l 496 206 b 376 150 468 178 436 150 b 244 297 292 150 244 211 b 376 440 244 381 292 440 b 492 378 424 440 469 414 l 625 486 b 376 604 565 561 494 604 b 53 297 192 604 53 476 b 376 -12 53 115 192 -12 z "},"d":{"ha":765,"x_min":0,"x_max":0,"o":"m 322 -12 b 508 86 413 -12 475 24 l 504 0 l 692 0 l 692 1003 l 504 1003 l 504 508 b 319 604 467 567 414 604 b 54 297 176 604 54 479 b 322 -12 54 115 178 -12 z m 376 151 b 247 297 297 151 247 204 b 376 439 247 385 297 439 b 510 297 457 439 510 385 b 376 151 510 204 457 151 z "},"e":{"ha":747,"x_min":0,"x_max":0,"o":"m 244 239 l 693 239 b 379 604 707 446 592 604 b 53 297 196 604 53 476 b 400 -12 53 115 189 -12 b 653 75 524 -12 596 25 l 546 190 b 397 143 517 169 465 143 b 244 239 313 143 263 178 z m 242 347 b 381 451 257 418 307 451 b 504 347 454 451 496 413 z "},"f":{"ha":531,"x_min":0,"x_max":0,"o":"m 142 0 l 329 0 l 329 436 l 489 436 l 489 592 l 329 592 l 329 793 b 381 853 329 836 350 853 b 440 821 410 853 426 838 l 542 946 b 360 1021 499 996 443 1021 b 142 790 214 1021 142 943 l 142 592 l 43 592 l 43 436 l 142 436 z "},"g":{"ha":683,"x_min":0,"x_max":0,"o":"m 428 593 b 340 604 401 600 372 604 b 86 388 189 604 86 514 b 139 253 86 336 106 289 b 57 136 86 229 57 189 b 128 17 57 82 79 43 b 19 -114 61 -8 19 -50 b 338 -308 19 -226 125 -308 b 664 -89 572 -308 664 -214 b 411 101 664 26 572 93 l 265 108 b 204 156 222 110 204 128 b 219 192 204 171 210 183 b 340 168 253 175 293 168 b 589 388 492 168 589 261 b 568 460 589 414 582 439 l 656 460 l 656 593 z m 338 304 b 250 388 281 304 250 338 b 338 467 250 435 281 467 b 425 388 394 467 425 435 b 338 304 425 338 394 304 z m 218 -44 l 374 -54 b 472 -103 450 -58 472 -69 b 338 -168 472 -139 447 -168 b 201 -90 235 -168 201 -137 b 218 -44 201 -72 207 -57 z "},"h":{"ha":736,"x_min":0,"x_max":0,"o":"m 74 0 l 261 0 l 261 317 b 381 433 261 392 306 433 b 479 329 447 433 479 396 l 479 0 l 667 0 l 667 342 b 444 604 667 510 574 604 b 261 499 363 604 297 567 l 261 1003 l 74 1003 z "},"i":{"ha":349,"x_min":0,"x_max":0,"o":"m 175 690 b 293 808 239 690 293 739 b 175 925 293 876 239 925 b 56 808 111 925 56 876 b 175 690 56 739 111 690 z m 81 0 l 268 0 l 268 592 l 81 592 z "},"j":{"ha":347,"x_min":0,"x_max":0,"o":"m 175 690 b 293 808 239 690 293 739 b 175 925 293 876 239 925 b 56 808 111 925 56 876 b 175 690 56 739 111 690 z m 56 -308 b 268 -94 194 -308 268 -231 l 268 592 l 81 592 l 81 -101 b 38 -149 81 -132 67 -149 b -8 -126 22 -149 7 -140 l -101 -237 b 56 -308 -74 -272 -14 -308 z "},"k":{"ha":686,"x_min":0,"x_max":0,"o":"m 261 171 l 311 224 l 458 0 l 676 0 l 444 350 l 654 592 l 446 592 l 251 364 b 261 492 257 401 261 447 l 261 1003 l 74 1003 l 74 0 l 261 0 z "},"l":{"ha":342,"x_min":0,"x_max":0,"o":"m 78 0 l 264 0 l 264 1003 l 78 1003 z "},"m":{"ha":1097,"x_min":0,"x_max":0,"o":"m 74 0 l 261 0 l 261 317 b 367 433 261 397 294 433 b 458 326 438 433 458 396 l 458 0 l 644 0 l 644 317 b 749 433 644 397 676 433 b 842 326 819 433 842 396 l 842 0 l 1028 0 l 1028 343 b 793 604 1028 506 942 604 b 592 503 706 604 640 564 b 425 604 556 572 501 604 b 257 500 354 604 299 572 l 261 592 l 74 592 z "},"n":{"ha":736,"x_min":0,"x_max":0,"o":"m 74 0 l 261 0 l 261 317 b 381 433 261 392 306 433 b 479 329 447 433 479 396 l 479 0 l 667 0 l 667 342 b 444 604 667 510 574 604 b 257 494 363 604 293 565 l 261 592 l 74 592 z "},"o":{"ha":757,"x_min":0,"x_max":0,"o":"m 379 -12 b 704 294 563 -12 704 115 b 379 604 704 475 563 604 b 53 294 196 604 53 475 b 379 -12 53 115 196 -12 z m 379 146 b 244 294 296 146 244 207 b 379 443 244 383 296 443 b 513 294 463 443 513 383 b 379 146 513 207 463 146 z "},"p":{"ha":765,"x_min":0,"x_max":0,"o":"m 74 -294 l 261 -294 l 261 79 b 443 -12 292 25 353 -12 b 711 297 588 -12 711 115 b 447 604 711 479 590 604 b 257 500 356 604 293 564 l 261 592 l 74 592 z m 389 151 b 256 297 308 151 256 204 b 389 439 256 385 308 439 b 518 297 468 439 518 385 b 389 151 518 204 468 151 z "},"q":{"ha":767,"x_min":0,"x_max":0,"o":"m 506 -294 l 693 -294 l 693 592 l 506 592 l 510 500 b 319 604 475 563 414 604 b 54 297 176 604 54 479 b 322 -12 54 115 178 -12 b 506 79 413 -12 474 25 z m 376 151 b 247 297 297 151 247 204 b 376 439 247 385 297 439 b 510 297 457 439 510 385 b 376 151 510 204 457 151 z "},"r":{"ha":544,"x_min":0,"x_max":0,"o":"m 74 0 l 261 0 l 261 263 b 392 428 261 389 307 428 b 464 410 418 428 440 421 l 524 581 b 432 604 500 593 471 604 b 258 485 371 604 301 582 l 261 592 l 74 592 z "},"s":{"ha":585,"x_min":0,"x_max":0,"o":"m 300 -12 b 543 185 486 -12 543 76 b 349 369 543 310 435 350 b 231 425 268 388 231 392 b 294 460 231 449 251 460 b 408 415 339 460 381 439 l 508 522 b 293 604 460 572 390 604 b 64 417 167 604 64 550 b 235 228 64 293 154 249 b 368 171 331 203 368 203 b 288 135 368 146 349 135 b 140 197 232 135 181 158 l 31 100 b 300 -12 82 39 163 -12 z "},"t":{"ha":531,"x_min":0,"x_max":0,"o":"m 336 -15 b 501 39 422 -15 472 15 l 431 169 b 365 144 418 161 396 144 b 317 217 336 144 317 157 l 317 436 l 468 436 l 468 592 l 317 592 l 317 900 l 131 900 l 131 592 l 43 592 l 43 436 l 131 436 l 131 222 b 336 -15 131 44 217 -15 z "},"u":{"ha":733,"x_min":0,"x_max":0,"o":"m 290 -12 b 476 97 372 -12 440 26 l 472 0 l 660 0 l 660 592 l 472 592 l 472 275 b 356 157 472 200 431 157 b 257 263 289 157 257 196 l 257 592 l 69 592 l 69 250 b 290 -12 69 82 161 -12 z "},"v":{"ha":681,"x_min":0,"x_max":0,"o":"m 333 -12 l 351 -12 l 668 592 l 478 592 l 397 415 b 351 258 371 356 351 258 b 303 415 351 258 331 356 l 219 592 l 13 592 z "},"w":{"ha":957,"x_min":0,"x_max":0,"o":"m 286 -15 l 301 -15 l 438 222 b 482 340 461 264 482 340 b 524 222 482 340 500 265 l 651 -15 l 668 -15 l 944 592 l 757 592 l 688 424 b 644 292 667 375 644 292 b 593 424 644 292 619 376 l 490 607 l 476 607 l 379 424 b 331 292 353 375 331 292 b 288 424 331 292 308 374 l 219 592 l 13 592 z "},"x":{"ha":710,"x_min":0,"x_max":0,"o":"m 22 0 l 222 0 l 289 101 b 343 207 314 139 343 207 b 397 101 343 207 372 139 l 465 0 l 688 0 l 460 325 l 656 592 l 456 592 l 408 518 b 365 426 388 486 365 426 b 321 518 365 426 342 486 l 272 592 l 51 592 l 250 310 z "},"y":{"ha":681,"x_min":0,"x_max":0,"o":"m 93 -294 l 281 -294 l 668 592 l 478 592 l 386 364 b 346 211 364 310 346 211 b 304 364 346 211 325 308 l 219 592 l 13 592 l 247 56 z "},"z":{"ha":614,"x_min":0,"x_max":0,"o":"m 32 0 l 553 0 l 553 151 l 313 151 l 575 576 l 575 592 l 64 592 l 64 440 l 289 440 l 32 15 z "},"{":{"ha":575,"x_min":0,"x_max":0,"o":"m 415 -178 l 533 -178 l 533 -19 l 432 -19 b 385 28 393 -19 385 -3 l 385 235 b 256 382 385 335 331 369 b 385 529 331 394 385 429 l 385 797 b 432 844 385 828 393 844 l 533 844 l 533 1003 l 415 1003 b 196 803 303 1003 196 960 l 196 553 b 117 461 196 488 171 461 l 36 461 l 36 303 l 117 303 b 196 211 171 303 196 276 l 196 22 b 415 -178 196 -135 303 -178 z "},"|":{"ha":386,"x_min":0,"x_max":0,"o":"m 103 -178 l 283 -178 l 283 1003 l 103 1003 z "},"}":{"ha":575,"x_min":0,"x_max":0,"o":"m 42 -178 l 160 -178 b 379 22 272 -178 379 -135 l 379 211 b 458 303 379 276 404 303 l 539 303 l 539 461 l 458 461 b 379 553 404 461 379 488 l 379 803 b 160 1003 379 960 272 1003 l 42 1003 l 42 844 l 143 844 b 190 797 182 844 190 828 l 190 529 b 319 382 190 429 244 394 b 190 235 244 369 190 335 l 190 28 b 143 -19 190 -3 182 -19 l 42 -19 z "},"~":{"ha":567,"x_min":0,"x_max":0,"o":"m 172 285 b 213 347 176 326 189 347 b 279 313 233 347 247 332 b 367 285 301 299 331 285 b 521 479 450 285 514 349 l 394 492 b 354 429 390 450 379 429 b 288 464 335 429 319 444 b 200 492 265 478 238 492 b 46 297 118 492 53 428 z "},"¡":{"ha":393,"x_min":0,"x_max":0,"o":"m 196 953 b 79 835 133 953 79 904 b 196 718 79 767 133 718 b 314 835 260 718 314 767 b 196 953 314 904 260 953 z m 271 624 l 122 624 l 92 0 l 301 0 z "},"¢":{"ha":671,"x_min":0,"x_max":0,"o":"m 329 -10 l 329 -161 l 422 -161 l 422 -10 b 628 94 514 -1 576 36 l 504 203 b 422 150 481 179 458 160 l 422 438 b 500 381 457 428 485 406 l 631 486 b 422 601 576 553 514 593 l 422 751 l 329 751 l 329 601 b 53 297 168 582 53 461 b 329 -10 53 132 169 11 z m 329 438 l 329 151 b 240 297 274 171 240 225 b 329 438 240 368 274 419 z "},"£":{"ha":804,"x_min":0,"x_max":0,"o":"m 242 340 b 271 268 253 317 264 292 b 185 282 244 276 215 282 b 26 140 99 282 26 229 b 208 -12 26 51 97 -12 b 375 56 274 -12 332 15 b 567 -12 425 19 486 -12 b 781 92 653 -12 731 24 l 671 204 b 558 150 640 171 606 150 b 443 182 518 150 481 164 b 443 194 443 186 443 190 b 417 340 443 246 432 294 l 579 340 l 579 482 l 364 482 b 340 590 350 519 340 556 b 453 692 340 658 386 692 b 579 599 514 692 549 663 l 733 690 b 453 858 682 797 583 858 b 151 601 257 858 151 744 b 178 482 151 561 163 521 l 107 482 l 107 340 z m 275 139 b 204 99 263 115 238 99 b 158 135 176 99 158 114 b 203 171 158 156 176 171 b 275 139 228 171 250 158 z "},"⁄":{"ha":588,"x_min":0,"x_max":0,"o":"m -28 0 l 157 0 l 615 725 l 431 725 z "},"¥":{"ha":794,"x_min":0,"x_max":0,"o":"m 301 0 l 492 0 l 492 133 l 726 133 l 726 253 l 493 253 l 538 331 l 726 331 l 726 450 l 606 450 l 761 725 l 569 725 l 460 511 b 404 368 429 450 404 368 b 350 511 404 368 381 450 l 242 725 l 33 725 l 188 450 l 67 450 l 67 331 l 256 331 l 300 253 l 67 253 l 67 133 l 301 133 z "},"ƒ":{"ha":567,"x_min":0,"x_max":0,"o":"m 67 -294 l 250 -294 l 313 251 l 476 251 l 476 401 l 329 401 l 357 640 b 415 700 363 683 383 700 b 469 667 440 700 456 689 l 581 774 b 404 858 543 825 493 858 b 172 625 272 858 190 786 l 146 401 l 46 401 l 46 251 l 129 251 z "},"§":{"ha":729,"x_min":0,"x_max":0,"o":"m 164 526 b 39 371 96 500 39 449 b 236 153 39 268 101 204 l 367 103 b 419 50 408 88 419 72 b 342 8 419 25 393 8 b 224 82 279 8 244 40 l 78 6 b 351 -143 110 -72 214 -143 b 607 53 513 -143 607 -69 b 572 168 607 101 594 138 b 690 332 640 199 690 250 b 494 542 690 428 624 494 l 351 594 b 300 657 313 608 300 628 b 371 708 300 683 319 708 b 460 644 415 708 439 682 l 608 717 b 363 858 558 810 488 858 b 124 650 226 858 124 774 b 164 526 124 601 138 561 z m 478 240 b 414 268 458 250 436 260 l 279 318 b 211 400 228 338 211 363 b 247 458 211 428 224 447 b 303 433 264 449 283 440 l 446 379 b 518 299 497 360 518 336 b 478 240 518 271 504 253 z "},"¤":{"ha":831,"x_min":0,"x_max":0,"o":"m 117 393 b 115 364 115 383 115 374 b 117 335 115 354 115 344 l 36 335 l 36 215 l 144 215 b 492 -12 201 81 335 -12 b 790 131 632 -12 718 29 l 653 233 b 492 149 621 185 576 149 b 346 215 431 149 381 172 l 519 215 l 519 335 l 301 335 b 300 364 300 344 300 354 b 301 393 300 374 300 383 l 519 393 l 519 513 l 346 513 b 492 578 379 554 431 578 b 646 504 560 578 606 556 l 775 613 b 492 738 703 701 619 738 b 144 513 332 738 201 647 l 36 513 l 36 393 z "},"'":{"ha":300,"x_min":0,"x_max":0,"o":"m 71 601 l 229 601 l 250 944 l 50 944 z "},"“":{"ha":638,"x_min":0,"x_max":0,"o":"m 471 574 b 582 685 529 574 582 621 b 519 786 582 733 553 771 l 572 944 l 482 944 l 399 803 b 357 683 374 760 357 726 b 471 574 357 621 410 574 z m 169 574 b 281 685 228 574 281 621 b 218 786 281 733 251 771 l 271 944 l 181 944 l 97 803 b 56 683 72 760 56 726 b 169 574 56 621 108 574 z "},"«":{"ha":700,"x_min":0,"x_max":0,"o":"m 475 44 l 656 44 l 519 283 l 656 518 l 475 518 l 343 289 l 343 278 z m 176 44 l 357 44 l 221 283 l 357 518 l 176 518 l 44 289 l 44 278 z "},"‹":{"ha":401,"x_min":0,"x_max":0,"o":"m 176 44 l 357 44 l 221 283 l 357 518 l 176 518 l 44 289 l 44 278 z "},"›":{"ha":401,"x_min":0,"x_max":0,"o":"m 44 44 l 225 44 l 357 274 l 357 285 l 225 518 l 44 518 l 181 279 z "},"ﬁ":{"ha":810,"x_min":0,"x_max":0,"o":"m 636 690 b 754 808 700 690 754 739 b 636 925 754 876 700 925 b 517 808 572 925 517 876 b 636 690 517 739 572 690 z m 142 0 l 329 0 l 329 436 l 542 436 l 542 0 l 729 0 l 729 592 l 329 592 l 329 793 b 378 853 329 835 349 853 b 428 835 400 853 417 844 l 515 967 b 360 1021 475 1001 433 1021 b 142 790 215 1021 142 943 l 142 592 l 43 592 l 43 436 l 142 436 z "},"ﬂ":{"ha":810,"x_min":0,"x_max":0,"o":"m 142 0 l 329 0 l 329 436 l 467 436 l 467 592 l 329 592 l 329 731 b 435 853 329 821 376 853 b 542 731 493 853 542 825 l 542 0 l 729 0 l 729 740 b 435 1021 729 926 597 1021 b 142 725 272 1021 142 917 l 142 592 l 43 592 l 43 436 l 142 436 z "},"–":{"ha":564,"x_min":0,"x_max":0,"o":"m 42 232 l 522 232 l 522 399 l 42 399 z "},"†":{"ha":503,"x_min":0,"x_max":0,"o":"m 167 335 l 336 335 l 336 656 l 460 656 l 460 810 l 336 810 l 336 944 l 167 944 l 167 810 l 43 810 l 43 656 l 167 656 z "},"‡":{"ha":503,"x_min":0,"x_max":0,"o":"m 167 335 l 336 335 l 336 469 l 460 469 l 460 607 l 336 607 l 336 672 l 460 672 l 460 810 l 336 810 l 336 944 l 167 944 l 167 810 l 43 810 l 43 672 l 167 672 l 167 607 l 43 607 l 43 469 l 167 469 z "},"·":{"ha":346,"x_min":0,"x_max":0,"o":"m 174 240 b 290 358 236 240 290 289 b 174 475 290 426 236 475 b 56 358 110 475 56 426 b 174 240 56 289 110 240 z "},"¶":{"ha":983,"x_min":0,"x_max":0,"o":"m 424 0 l 608 0 l 608 782 l 700 782 l 700 0 l 885 0 l 885 944 l 378 944 b 44 636 158 944 44 796 b 378 338 44 474 158 338 l 424 338 z m 383 500 b 250 642 311 500 250 542 b 383 782 250 740 311 782 l 424 782 l 424 500 z "},"•":{"ha":385,"x_min":0,"x_max":0,"o":"m 192 236 b 342 386 271 236 342 301 b 192 536 342 472 271 536 b 43 386 113 536 43 472 b 192 236 43 301 113 236 z "},"‚":{"ha":336,"x_min":0,"x_max":0,"o":"m 65 -142 l 156 -142 l 239 0 b 281 119 264 43 281 76 b 167 229 281 182 228 229 b 56 118 108 229 56 182 b 118 17 56 69 85 32 z "},"„":{"ha":638,"x_min":0,"x_max":0,"o":"m 367 -142 l 457 -142 l 540 0 b 582 119 565 43 582 76 b 468 229 582 182 529 229 b 357 118 410 229 357 182 b 419 17 357 69 386 32 z m 65 -142 l 156 -142 l 239 0 b 281 119 264 43 281 76 b 167 229 281 182 228 229 b 56 118 108 229 56 182 b 118 17 56 69 85 32 z "},"”":{"ha":638,"x_min":0,"x_max":0,"o":"m 367 583 l 457 583 l 540 725 b 582 844 565 768 582 801 b 468 954 582 907 529 954 b 357 843 410 954 357 907 b 419 742 357 794 386 757 z m 65 583 l 156 583 l 239 725 b 281 844 264 768 281 801 b 167 954 281 907 228 954 b 56 843 108 954 56 907 b 118 742 56 794 85 757 z "},"»":{"ha":700,"x_min":0,"x_max":0,"o":"m 343 44 l 524 44 l 656 274 l 656 285 l 524 518 l 343 518 l 479 279 z m 44 44 l 225 44 l 357 274 l 357 285 l 225 518 l 44 518 l 181 279 z "},"…":{"ha":1026,"x_min":0,"x_max":0,"o":"m 854 -8 b 971 110 917 -8 971 40 b 854 226 971 178 917 226 b 736 110 790 226 736 178 b 854 -8 736 40 790 -8 z m 514 -8 b 631 110 576 -8 631 40 b 514 226 631 178 576 226 b 396 110 450 226 396 178 b 514 -8 396 40 450 -8 z m 174 -8 b 290 110 236 -8 290 40 b 174 226 290 178 236 226 b 56 110 110 226 56 178 b 174 -8 56 40 110 -8 z "},"‰":{"ha":1700,"x_min":0,"x_max":0,"o":"m 263 301 b 489 519 386 301 489 392 b 263 738 489 646 386 738 b 35 519 138 738 35 646 b 263 301 35 392 138 301 z m 272 0 l 457 0 l 915 725 l 731 725 z m 1439 -12 b 1665 206 1563 -12 1665 78 b 1439 424 1665 332 1563 424 b 1211 206 1314 424 1211 332 b 1439 -12 1211 78 1314 -12 z m 926 -12 b 1153 206 1050 -12 1153 78 b 926 424 1153 332 1050 424 b 699 206 801 424 699 332 b 926 -12 699 78 801 -12 z m 263 442 b 190 519 226 442 190 471 b 263 597 190 568 226 597 b 335 519 299 597 335 568 b 263 442 335 471 299 442 z m 1439 128 b 1367 206 1403 128 1367 157 b 1439 283 1367 254 1403 283 b 1511 206 1475 283 1511 254 b 1439 128 1511 157 1475 128 z m 926 128 b 854 206 890 128 854 157 b 926 283 854 254 890 283 b 999 206 963 283 999 254 b 926 128 999 157 963 128 z "},"¿":{"ha":713,"x_min":0,"x_max":0,"o":"m 385 953 b 268 835 322 953 268 904 b 385 718 268 767 322 718 b 503 835 449 718 503 767 b 385 953 503 904 449 953 z m 471 624 l 296 624 l 296 542 b 60 271 143 519 60 419 b 368 -12 60 125 169 -12 b 665 157 514 -12 615 47 l 515 244 b 368 154 482 189 444 154 b 251 271 296 154 251 213 b 407 403 251 340 293 403 l 471 403 z "},"`":{"ha":694,"x_min":0,"x_max":0,"o":"m 275 694 l 417 694 l 344 956 l 131 956 z "},"´":{"ha":694,"x_min":0,"x_max":0,"o":"m 278 694 l 419 694 l 564 956 l 350 956 z "},"ˆ":{"ha":694,"x_min":0,"x_max":0,"o":"m 118 694 l 268 694 l 347 785 l 425 694 l 575 694 l 354 994 l 339 994 z "},"˜":{"ha":694,"x_min":0,"x_max":0,"o":"m 236 694 b 276 757 240 736 253 757 b 343 722 297 757 311 742 b 431 694 365 708 394 694 b 585 889 514 694 578 758 l 458 901 b 418 839 454 860 443 839 b 351 874 399 839 383 854 b 264 901 329 888 301 901 b 110 707 182 901 117 838 z "},"¯":{"ha":694,"x_min":0,"x_max":0,"o":"m 178 731 l 517 731 l 517 868 l 178 868 z "},"˘":{"ha":694,"x_min":0,"x_max":0,"o":"m 347 694 b 572 889 481 694 561 778 l 429 910 b 347 831 422 863 399 831 b 265 910 296 831 272 863 l 122 889 b 347 694 133 778 214 694 z "},"˙":{"ha":694,"x_min":0,"x_max":0,"o":"m 347 703 b 453 808 403 703 453 750 b 347 914 453 867 403 914 b 242 808 293 914 242 867 b 347 703 242 750 293 703 z "},"¨":{"ha":694,"x_min":0,"x_max":0,"o":"m 499 703 b 604 808 554 703 604 750 b 499 914 604 867 554 914 b 393 808 444 914 393 867 b 499 703 393 750 444 703 z m 196 703 b 301 808 251 703 301 750 b 196 914 301 867 251 914 b 90 808 142 914 90 867 b 196 703 90 750 142 703 z "},"˚":{"ha":694,"x_min":0,"x_max":0,"o":"m 347 658 b 526 824 449 658 526 735 b 347 989 526 914 449 989 b 168 824 246 989 168 914 b 347 658 168 735 246 658 z m 347 761 b 288 824 314 761 288 783 b 347 886 288 864 314 886 b 407 824 381 886 407 864 b 347 761 407 783 381 761 z "},"¸":{"ha":694,"x_min":0,"x_max":0,"o":"m 360 -333 b 510 -199 435 -333 510 -282 b 386 -54 510 -112 450 -67 l 386 0 l 290 0 l 290 -140 l 338 -140 b 394 -187 371 -140 394 -156 b 344 -235 394 -219 371 -235 b 285 -196 313 -235 296 -217 l 196 -250 b 360 -333 224 -297 274 -333 z "},"˝":{"ha":694,"x_min":0,"x_max":0,"o":"m 406 694 l 547 694 l 671 956 l 476 956 z m 149 694 l 290 694 l 414 956 l 219 956 z "},"˛":{"ha":694,"x_min":0,"x_max":0,"o":"m 338 -333 b 497 -247 421 -333 465 -303 l 406 -194 b 349 -231 393 -214 378 -231 b 310 -190 325 -231 310 -215 b 346 -96 310 -158 318 -143 l 403 0 l 293 0 l 244 -62 b 189 -193 213 -103 189 -146 b 338 -333 189 -287 258 -333 z "},"ˇ":{"ha":694,"x_min":0,"x_max":0,"o":"m 340 668 l 356 668 l 576 968 l 426 968 l 347 878 l 269 968 l 119 968 z "},"—":{"ha":913,"x_min":0,"x_max":0,"o":"m 42 232 l 871 232 l 871 399 l 42 399 z "},"Æ":{"ha":1375,"x_min":0,"x_max":0,"o":"m 21 0 l 226 0 l 299 107 l 649 107 l 649 0 l 1293 0 l 1293 171 l 843 171 l 843 307 l 1222 307 l 1222 474 l 843 474 l 843 774 l 1274 774 l 1274 944 l 669 944 z m 413 275 l 603 558 b 663 678 635 606 663 678 b 649 544 663 678 649 600 l 649 275 z "},"ª":{"ha":594,"x_min":0,"x_max":0,"o":"m 361 522 l 246 522 b 43 369 129 522 43 474 b 222 213 43 263 125 213 b 365 288 285 213 333 240 l 361 225 l 531 225 l 531 513 b 303 738 531 669 425 738 b 68 649 171 738 110 690 l 169 553 b 282 599 192 574 221 599 b 361 522 331 599 358 576 z m 361 422 l 361 408 b 268 343 361 374 335 343 b 211 382 228 343 211 363 b 261 422 211 404 225 422 z "},"Ł":{"ha":793,"x_min":0,"x_max":0,"o":"m 113 0 l 735 0 l 735 171 l 307 171 l 307 314 l 557 400 l 557 569 l 307 483 l 307 944 l 113 944 l 113 415 l 10 381 l 10 211 l 113 246 z "},"Ø":{"ha":1111,"x_min":0,"x_max":0,"o":"m 158 -14 b 260 82 158 -14 207 32 b 556 -12 342 22 444 -12 b 1044 472 828 -12 1044 193 b 958 753 1044 579 1013 675 l 1061 850 l 953 957 l 853 861 b 556 957 771 922 668 957 b 67 472 283 957 67 751 b 153 190 67 365 99 269 l 50 93 z m 294 326 b 265 472 275 369 265 418 b 556 785 265 649 383 785 b 721 735 619 785 676 767 z m 556 160 b 390 208 492 160 436 176 l 818 617 b 846 472 836 575 846 525 b 556 160 846 296 728 160 z "},"Œ":{"ha":1385,"x_min":0,"x_max":0,"o":"m 563 0 l 1303 0 l 1303 171 l 853 171 l 853 307 l 1232 307 l 1232 474 l 853 474 l 853 774 l 1283 774 l 1283 944 l 563 944 b 65 472 271 944 65 751 b 563 0 65 193 272 0 z m 572 171 b 267 472 363 171 267 296 b 572 774 267 649 363 774 l 658 774 l 658 171 z "},"º":{"ha":665,"x_min":0,"x_max":0,"o":"m 333 211 b 611 475 488 211 611 322 b 333 738 611 625 488 738 b 54 475 178 738 54 625 b 333 211 54 322 178 211 z m 333 354 b 231 475 268 354 231 401 b 333 593 231 546 268 593 b 438 475 397 593 438 546 b 333 354 438 401 397 354 z "},"æ":{"ha":1117,"x_min":0,"x_max":0,"o":"m 422 349 l 285 349 b 43 174 139 349 43 300 b 288 -12 43 39 146 -12 b 521 86 397 -12 474 24 b 769 -12 574 24 657 -12 b 1022 75 893 -12 965 25 l 915 190 b 767 143 886 169 835 143 b 614 239 682 143 632 178 l 1063 239 b 749 604 1076 443 961 604 b 532 518 657 604 583 572 b 342 604 490 576 425 604 b 85 507 203 604 140 561 l 189 396 b 324 450 215 419 253 450 b 422 349 388 450 419 419 z m 611 349 b 750 451 626 418 678 451 b 874 349 826 451 867 408 z m 422 239 l 422 217 b 307 133 422 167 383 133 b 226 186 254 133 226 153 b 294 239 226 221 249 239 z "},"ı":{"ha":349,"x_min":0,"x_max":0,"o":"m 81 0 l 268 0 l 268 592 l 81 592 z "},"ł":{"ha":397,"x_min":0,"x_max":0,"o":"m 106 0 l 292 0 l 292 364 l 393 421 l 393 601 l 292 544 l 292 1003 l 106 1003 l 106 440 l 11 388 l 11 207 l 106 260 z "},"ø":{"ha":757,"x_min":0,"x_max":0,"o":"m 657 456 l 738 524 l 665 611 l 581 539 b 379 604 525 581 454 604 b 53 294 196 604 53 475 b 100 133 53 235 69 181 l 19 67 l 92 -19 l 176 53 b 379 -12 232 11 303 -12 b 704 294 563 -12 704 115 b 657 456 704 354 688 410 z m 239 251 b 235 294 236 265 235 279 b 379 450 235 388 292 450 b 453 432 407 450 432 443 z m 518 339 b 522 294 521 325 522 310 b 379 139 522 203 467 139 b 303 158 350 139 324 146 z "},"œ":{"ha":1204,"x_min":0,"x_max":0,"o":"m 701 239 l 1150 239 b 836 604 1163 444 1049 604 b 607 503 733 604 656 567 b 379 604 558 567 482 604 b 53 294 196 604 53 475 b 379 -12 53 115 196 -12 b 608 90 483 -12 561 26 b 857 -12 661 26 743 -12 b 1110 75 981 -12 1053 25 l 1003 190 b 854 143 974 169 922 143 b 701 239 769 143 719 178 z m 699 347 b 838 451 714 418 764 451 b 961 347 911 451 953 413 z m 379 146 b 244 294 296 146 244 207 b 379 443 244 383 296 443 b 513 294 463 443 513 383 b 379 146 513 207 463 146 z "},"ß":{"ha":808,"x_min":0,"x_max":0,"o":"m 454 -8 b 756 292 649 -8 756 115 b 553 560 756 436 675 524 b 661 753 619 597 661 660 b 375 1021 661 913 560 1021 b 74 718 200 1021 74 915 l 74 0 l 261 0 l 261 724 b 375 867 261 819 307 867 b 482 744 443 867 482 831 b 363 607 482 649 429 615 l 363 460 b 564 297 483 464 564 418 b 421 150 564 200 515 150 b 354 161 392 150 375 154 l 333 7 b 454 -8 354 0 399 -8 z "},"¹":{"ha":338,"x_min":0,"x_max":0,"o":"m 174 240 b 290 358 236 240 290 289 b 174 475 290 426 236 475 b 56 358 110 475 56 426 b 174 240 56 289 110 240 z "},"¬":{"ha":338,"x_min":0,"x_max":0,"o":"m 174 240 b 290 358 236 240 290 289 b 174 475 290 426 236 475 b 56 358 110 475 56 426 b 174 240 56 289 110 240 z "},"µ":{"ha":338,"x_min":0,"x_max":0,"o":"m 174 240 b 290 358 236 240 290 289 b 174 475 290 426 236 475 b 56 358 110 475 56 426 b 174 240 56 289 110 240 z "},"™":{"ha":988,"x_min":0,"x_max":0,"o":"m 474 525 l 599 525 l 599 696 l 686 597 l 699 597 l 785 696 l 785 525 l 910 525 l 910 950 l 896 950 l 692 746 l 488 950 l 474 950 z m 161 525 l 289 525 l 289 842 l 401 842 l 401 944 l 49 944 l 49 842 l 161 842 z "},"Ð":{"ha":951,"x_min":0,"x_max":0,"o":"m 99 0 l 389 0 b 886 472 681 0 886 193 b 389 944 886 751 679 944 l 99 944 l 99 499 l 17 499 l 17 331 l 99 331 z m 293 171 l 293 331 l 503 331 l 503 499 l 293 499 l 293 774 l 379 774 b 685 472 589 774 685 649 b 379 171 685 296 589 171 z "},"½":{"ha":338,"x_min":0,"x_max":0,"o":"m 174 240 b 290 358 236 240 290 289 b 174 475 290 426 236 475 b 56 358 110 475 56 426 b 174 240 56 289 110 240 z "},"Þ":{"ha":835,"x_min":0,"x_max":0,"o":"m 99 0 l 293 0 l 293 114 l 360 114 b 782 478 622 114 782 250 b 360 843 782 706 624 843 l 293 843 l 293 944 l 99 944 z m 293 285 l 293 672 l 354 672 b 582 478 510 672 582 608 b 354 285 582 349 513 285 z "},"¼":{"ha":338,"x_min":0,"x_max":0,"o":"m 174 240 b 290 358 236 240 290 289 b 174 475 290 426 236 475 b 56 358 110 475 56 426 b 174 240 56 289 110 240 z "},"÷":{"ha":338,"x_min":0,"x_max":0,"o":"m 174 240 b 290 358 236 240 290 289 b 174 475 290 426 236 475 b 56 358 110 475 56 426 b 174 240 56 289 110 240 z "},"¦":{"ha":338,"x_min":0,"x_max":0,"o":"m 174 240 b 290 358 236 240 290 289 b 174 475 290 426 236 475 b 56 358 110 475 56 426 b 174 240 56 289 110 240 z "},"°":{"ha":461,"x_min":0,"x_max":0,"o":"m 231 372 b 425 556 338 372 425 454 b 231 738 425 660 338 738 b 36 556 125 738 36 660 b 231 372 36 454 125 372 z m 231 483 b 161 556 190 483 161 513 b 231 626 161 599 190 626 b 300 556 271 626 300 599 b 231 483 300 513 271 483 z "},"þ":{"ha":771,"x_min":0,"x_max":0,"o":"m 79 -294 l 267 -294 l 267 79 b 449 -12 297 25 358 -12 b 717 297 593 -12 717 115 b 453 604 717 479 597 604 b 267 508 363 604 306 567 l 267 1003 l 79 1003 z m 394 151 b 261 297 314 151 261 204 b 394 439 261 385 314 439 b 524 297 474 439 524 385 b 394 151 524 204 474 151 z "},"¾":{"ha":338,"x_min":0,"x_max":0,"o":"m 174 240 b 290 358 236 240 290 289 b 174 475 290 426 236 475 b 56 358 110 475 56 426 b 174 240 56 289 110 240 z "},"²":{"ha":338,"x_min":0,"x_max":0,"o":"m 174 240 b 290 358 236 240 290 289 b 174 475 290 426 236 475 b 56 358 110 475 56 426 b 174 240 56 289 110 240 z "},"®":{"ha":699,"x_min":0,"x_max":0,"o":"m 347 351 b 658 654 518 351 658 478 b 347 957 658 832 518 957 b 40 654 178 957 40 832 b 347 351 40 478 178 351 z m 347 418 b 114 651 213 418 114 507 b 347 890 114 803 213 890 b 585 651 483 890 585 803 b 347 418 585 507 483 418 z m 438 597 b 488 694 472 619 488 657 b 360 806 488 751 440 806 l 231 806 l 231 504 l 322 504 l 322 579 l 357 579 l 394 504 l 489 504 z m 322 651 l 322 726 l 363 726 b 397 690 375 726 397 717 b 363 651 397 658 375 651 z "},"−":{"ha":338,"x_min":0,"x_max":0,"o":"m 174 240 b 290 358 236 240 290 289 b 174 475 290 426 236 475 b 56 358 110 475 56 426 b 174 240 56 289 110 240 z "},"ð":{"ha":757,"x_min":0,"x_max":0,"o":"m 369 733 b 468 571 414 678 449 622 b 346 604 436 594 397 604 b 53 294 199 604 53 476 b 379 -12 53 115 196 -12 b 704 324 563 -12 704 103 b 492 851 704 557 608 725 l 569 925 l 483 1010 l 406 935 b 293 1026 368 969 329 999 l 196 908 b 289 824 229 881 260 853 l 204 742 l 290 657 z m 379 146 b 244 294 296 146 244 207 b 379 443 244 383 296 443 b 513 294 463 443 513 383 b 379 146 513 207 463 146 z "},"×":{"ha":338,"x_min":0,"x_max":0,"o":"m 174 240 b 290 358 236 240 290 289 b 174 475 290 426 236 475 b 56 358 110 475 56 426 b 174 240 56 289 110 240 z "},"³":{"ha":338,"x_min":0,"x_max":0,"o":"m 174 240 b 290 358 236 240 290 289 b 174 475 290 426 236 475 b 56 358 110 475 56 426 b 174 240 56 289 110 240 z "},"©":{"ha":825,"x_min":0,"x_max":0,"o":"m 415 -7 b 785 365 613 -7 785 150 b 415 738 785 581 613 738 b 40 365 215 738 40 581 b 415 -7 40 150 215 -7 z m 415 75 b 126 365 257 75 126 189 b 415 656 126 542 257 656 b 699 365 569 656 699 542 b 415 75 699 189 569 75 z m 422 161 b 592 236 507 161 558 197 l 492 324 b 432 294 482 310 464 294 b 367 365 389 294 367 326 b 429 436 367 408 388 436 b 490 406 454 436 475 425 l 589 497 b 417 572 556 533 501 572 b 208 365 297 572 208 486 b 422 161 208 246 297 161 z "},"Á":{"ha":922,"x_min":0,"x_max":0,"o":"m 385 1039 l 526 1039 l 671 1300 l 457 1300 z m 29 0 l 217 0 l 261 107 l 644 107 l 689 0 l 893 0 l 461 953 l 444 953 z m 326 269 l 394 433 b 450 603 422 500 450 603 b 507 433 450 603 479 500 l 575 269 z "},"Â":{"ha":922,"x_min":0,"x_max":0,"o":"m 224 1039 l 374 1039 l 453 1129 l 531 1039 l 681 1039 l 460 1339 l 444 1339 z m 29 0 l 217 0 l 261 107 l 644 107 l 689 0 l 893 0 l 461 953 l 444 953 z m 326 269 l 394 433 b 450 603 422 500 450 603 b 507 433 450 603 479 500 l 575 269 z "},"Ä":{"ha":922,"x_min":0,"x_max":0,"o":"m 613 1047 b 718 1153 668 1047 718 1094 b 613 1258 718 1211 668 1258 b 507 1153 558 1258 507 1211 b 613 1047 507 1094 558 1047 z m 310 1047 b 415 1153 365 1047 415 1094 b 310 1258 415 1211 365 1258 b 204 1153 256 1258 204 1211 b 310 1047 204 1094 256 1047 z m 29 0 l 217 0 l 261 107 l 644 107 l 689 0 l 893 0 l 461 953 l 444 953 z m 326 269 l 394 433 b 450 603 422 500 450 603 b 507 433 450 603 479 500 l 575 269 z "},"À":{"ha":922,"x_min":0,"x_max":0,"o":"m 389 1039 l 531 1039 l 458 1300 l 244 1300 z m 29 0 l 217 0 l 261 107 l 644 107 l 689 0 l 893 0 l 461 953 l 444 953 z m 326 269 l 394 433 b 450 603 422 500 450 603 b 507 433 450 603 479 500 l 575 269 z "},"Å":{"ha":922,"x_min":0,"x_max":0,"o":"m 461 1003 b 640 1168 563 1003 640 1079 b 461 1333 640 1258 563 1333 b 282 1168 360 1333 282 1258 b 461 1003 282 1079 360 1003 z m 29 0 l 217 0 l 261 107 l 644 107 l 689 0 l 893 0 l 461 953 l 444 953 z m 461 1106 b 401 1168 428 1106 401 1128 b 461 1231 401 1208 428 1231 b 521 1168 494 1231 521 1208 b 461 1106 521 1128 494 1106 z m 326 269 l 394 433 b 450 603 422 500 450 603 b 507 433 450 603 479 500 l 575 269 z "},"Ã":{"ha":922,"x_min":0,"x_max":0,"o":"m 339 1039 b 379 1101 343 1081 356 1101 b 446 1067 400 1101 414 1086 b 533 1039 468 1053 497 1039 b 688 1233 617 1039 681 1103 l 561 1246 b 521 1183 557 1204 546 1183 b 454 1218 501 1183 486 1199 b 367 1246 432 1232 404 1246 b 213 1051 285 1246 219 1182 z m 29 0 l 217 0 l 261 107 l 644 107 l 689 0 l 893 0 l 461 953 l 444 953 z m 326 269 l 394 433 b 450 603 422 500 450 603 b 507 433 450 603 479 500 l 575 269 z "},"Ç":{"ha":1008,"x_min":0,"x_max":0,"o":"m 478 -7 l 478 -140 l 525 -140 b 582 -187 558 -140 582 -156 b 532 -235 582 -219 558 -235 b 472 -196 500 -235 483 -217 l 383 -250 b 547 -333 411 -297 461 -333 b 697 -199 622 -333 697 -282 b 574 -54 697 -112 638 -67 l 574 -12 b 947 196 744 -6 868 74 l 796 300 b 553 161 743 219 675 161 b 267 472 382 161 267 296 b 553 781 267 649 382 781 b 782 657 661 781 738 729 l 931 763 b 553 956 846 894 724 956 b 67 472 282 956 67 751 b 478 -7 67 219 243 26 z "},"É":{"ha":825,"x_min":0,"x_max":0,"o":"m 342 1039 l 483 1039 l 628 1300 l 414 1300 z m 99 0 l 743 0 l 743 171 l 293 171 l 293 307 l 672 307 l 672 474 l 293 474 l 293 774 l 724 774 l 724 944 l 99 944 z "},"Ê":{"ha":825,"x_min":0,"x_max":0,"o":"m 188 1039 l 338 1039 l 417 1129 l 494 1039 l 644 1039 l 424 1339 l 408 1339 z m 99 0 l 743 0 l 743 171 l 293 171 l 293 307 l 672 307 l 672 474 l 293 474 l 293 774 l 724 774 l 724 944 l 99 944 z "},"Ë":{"ha":825,"x_min":0,"x_max":0,"o":"m 567 1047 b 672 1153 622 1047 672 1094 b 567 1258 672 1211 622 1258 b 461 1153 513 1258 461 1211 b 567 1047 461 1094 513 1047 z m 264 1047 b 369 1153 319 1047 369 1094 b 264 1258 369 1211 319 1258 b 158 1153 210 1258 158 1211 b 264 1047 158 1094 210 1047 z m 99 0 l 743 0 l 743 171 l 293 171 l 293 307 l 672 307 l 672 474 l 293 474 l 293 774 l 724 774 l 724 944 l 99 944 z "},"È":{"ha":825,"x_min":0,"x_max":0,"o":"m 358 1039 l 500 1039 l 428 1300 l 214 1300 z m 99 0 l 743 0 l 743 171 l 293 171 l 293 307 l 672 307 l 672 474 l 293 474 l 293 774 l 724 774 l 724 944 l 99 944 z "},"Í":{"ha":399,"x_min":0,"x_max":0,"o":"m 129 1039 l 271 1039 l 415 1300 l 201 1300 z m 103 0 l 297 0 l 297 944 l 103 944 z "},"Î":{"ha":399,"x_min":0,"x_max":0,"o":"m -31 1039 l 119 1039 l 199 1129 l 276 1039 l 426 1039 l 206 1339 l 190 1339 z m 103 0 l 297 0 l 297 944 l 103 944 z "},"Ï":{"ha":399,"x_min":0,"x_max":0,"o":"m 350 1047 b 456 1153 406 1047 456 1094 b 350 1258 456 1211 406 1258 b 244 1153 296 1258 244 1211 b 350 1047 244 1094 296 1047 z m 47 1047 b 153 1153 103 1047 153 1094 b 47 1258 153 1211 103 1258 b -58 1153 -7 1258 -58 1211 b 47 1047 -58 1094 -7 1047 z m 103 0 l 297 0 l 297 944 l 103 944 z "},"Ì":{"ha":399,"x_min":0,"x_max":0,"o":"m 126 1039 l 268 1039 l 196 1300 l -18 1300 z m 103 0 l 297 0 l 297 944 l 103 944 z "},"Ñ":{"ha":974,"x_min":0,"x_max":0,"o":"m 375 1039 b 415 1101 379 1081 392 1101 b 482 1067 436 1101 450 1086 b 569 1039 504 1053 533 1039 b 724 1233 653 1039 717 1103 l 597 1246 b 557 1183 593 1204 582 1183 b 490 1218 538 1183 522 1199 b 403 1246 468 1232 440 1246 b 249 1051 321 1246 256 1182 z m 856 -8 l 875 -8 l 875 944 l 693 944 l 693 549 b 706 376 693 483 706 376 b 594 506 706 376 640 463 l 118 953 l 99 953 l 99 0 l 281 0 l 281 396 b 267 568 281 464 267 568 b 379 439 267 568 332 483 z "},"Ó":{"ha":1111,"x_min":0,"x_max":0,"o":"m 486 1039 l 628 1039 l 772 1300 l 558 1300 z m 556 -12 b 1044 472 828 -12 1044 193 b 556 957 1044 751 828 957 b 67 472 283 957 67 751 b 556 -12 67 193 283 -12 z m 556 161 b 267 472 383 161 267 296 b 556 783 267 649 383 783 b 844 472 728 783 844 649 b 556 161 844 296 728 161 z "},"Ô":{"ha":1111,"x_min":0,"x_max":0,"o":"m 326 1039 l 476 1039 l 556 1129 l 633 1039 l 783 1039 l 563 1339 l 547 1339 z m 556 -12 b 1044 472 828 -12 1044 193 b 556 957 1044 751 828 957 b 67 472 283 957 67 751 b 556 -12 67 193 283 -12 z m 556 161 b 267 472 383 161 267 296 b 556 783 267 649 383 783 b 844 472 728 783 844 649 b 556 161 844 296 728 161 z "},"Ö":{"ha":1111,"x_min":0,"x_max":0,"o":"m 707 1047 b 813 1153 763 1047 813 1094 b 707 1258 813 1211 763 1258 b 601 1153 653 1258 601 1211 b 707 1047 601 1094 653 1047 z m 404 1047 b 510 1153 460 1047 510 1094 b 404 1258 510 1211 460 1258 b 299 1153 350 1258 299 1211 b 404 1047 299 1094 350 1047 z m 556 -12 b 1044 472 828 -12 1044 193 b 556 957 1044 751 828 957 b 67 472 283 957 67 751 b 556 -12 67 193 283 -12 z m 556 161 b 267 472 383 161 267 296 b 556 783 267 649 383 783 b 844 472 728 783 844 649 b 556 161 844 296 728 161 z "},"Ò":{"ha":1111,"x_min":0,"x_max":0,"o":"m 483 1039 l 625 1039 l 553 1300 l 339 1300 z m 556 -12 b 1044 472 828 -12 1044 193 b 556 957 1044 751 828 957 b 67 472 283 957 67 751 b 556 -12 67 193 283 -12 z m 556 161 b 267 472 383 161 267 296 b 556 783 267 649 383 783 b 844 472 728 783 844 649 b 556 161 844 296 728 161 z "},"Õ":{"ha":1111,"x_min":0,"x_max":0,"o":"m 444 1039 b 485 1101 449 1081 461 1101 b 551 1067 506 1101 519 1086 b 639 1039 574 1053 603 1039 b 793 1233 722 1039 786 1103 l 667 1246 b 626 1183 663 1204 651 1183 b 560 1218 607 1183 592 1199 b 472 1246 538 1232 510 1246 b 318 1051 390 1246 325 1182 z m 556 -12 b 1044 472 828 -12 1044 193 b 556 957 1044 751 828 957 b 67 472 283 957 67 751 b 556 -12 67 193 283 -12 z m 556 161 b 267 472 383 161 267 296 b 556 783 267 649 383 783 b 844 472 728 783 844 649 b 556 161 844 296 728 161 z "},"Š":{"ha":746,"x_min":0,"x_max":0,"o":"m 347 1013 l 363 1013 l 583 1313 l 433 1313 l 354 1222 l 276 1313 l 126 1313 z m 371 -12 b 693 258 556 -12 693 83 b 435 564 693 421 600 493 l 386 585 b 267 703 303 621 267 644 b 360 786 267 750 303 786 b 485 703 415 786 451 763 l 636 800 b 360 956 572 913 483 956 b 75 699 186 956 75 844 b 308 406 75 540 168 465 l 357 385 b 499 256 446 346 499 322 b 367 160 499 200 447 160 b 175 278 271 160 217 210 l 17 186 b 371 -12 74 74 190 -12 z "},"Ú":{"ha":953,"x_min":0,"x_max":0,"o":"m 407 1039 l 549 1039 l 693 1300 l 479 1300 z m 478 -12 b 858 342 693 -12 858 103 l 858 944 l 664 944 l 664 353 b 478 163 664 215 606 163 b 289 353 349 163 289 215 l 289 944 l 94 944 l 94 342 b 478 -12 94 103 260 -12 z "},"Û":{"ha":953,"x_min":0,"x_max":0,"o":"m 247 1039 l 397 1039 l 476 1129 l 554 1039 l 704 1039 l 483 1339 l 468 1339 z m 478 -12 b 858 342 693 -12 858 103 l 858 944 l 664 944 l 664 353 b 478 163 664 215 606 163 b 289 353 349 163 289 215 l 289 944 l 94 944 l 94 342 b 478 -12 94 103 260 -12 z "},"Ü":{"ha":953,"x_min":0,"x_max":0,"o":"m 628 1047 b 733 1153 683 1047 733 1094 b 628 1258 733 1211 683 1258 b 522 1153 574 1258 522 1211 b 628 1047 522 1094 574 1047 z m 325 1047 b 431 1153 381 1047 431 1094 b 325 1258 431 1211 381 1258 b 219 1153 271 1258 219 1211 b 325 1047 219 1094 271 1047 z m 478 -12 b 858 342 693 -12 858 103 l 858 944 l 664 944 l 664 353 b 478 163 664 215 606 163 b 289 353 349 163 289 215 l 289 944 l 94 944 l 94 342 b 478 -12 94 103 260 -12 z "},"Ù":{"ha":953,"x_min":0,"x_max":0,"o":"m 404 1039 l 546 1039 l 474 1300 l 260 1300 z m 478 -12 b 858 342 693 -12 858 103 l 858 944 l 664 944 l 664 353 b 478 163 664 215 606 163 b 289 353 349 163 289 215 l 289 944 l 94 944 l 94 342 b 478 -12 94 103 260 -12 z "},"Ý":{"ha":947,"x_min":0,"x_max":0,"o":"m 407 1039 l 549 1039 l 693 1300 l 479 1300 z m 388 0 l 583 0 l 583 314 l 919 944 l 721 944 l 561 640 b 488 461 525 572 488 461 b 411 640 488 461 447 574 l 244 944 l 29 944 l 388 300 z "},"Ÿ":{"ha":947,"x_min":0,"x_max":0,"o":"m 625 1047 b 731 1153 681 1047 731 1094 b 625 1258 731 1211 681 1258 b 519 1153 571 1258 519 1211 b 625 1047 519 1094 571 1047 z m 322 1047 b 428 1153 378 1047 428 1094 b 322 1258 428 1211 378 1258 b 217 1153 268 1258 217 1211 b 322 1047 217 1094 268 1047 z m 388 0 l 583 0 l 583 314 l 919 944 l 721 944 l 561 640 b 488 461 525 572 488 461 b 411 640 488 461 447 574 l 244 944 l 29 944 l 388 300 z "},"Ž":{"ha":843,"x_min":0,"x_max":0,"o":"m 426 1013 l 442 1013 l 663 1313 l 513 1313 l 433 1222 l 356 1313 l 206 1313 z m 38 0 l 747 0 l 747 171 l 339 171 l 771 928 l 771 944 l 114 944 l 114 774 l 471 774 l 38 17 z "},"á":{"ha":678,"x_min":0,"x_max":0,"o":"m 254 694 l 396 694 l 540 956 l 326 956 z m 422 351 l 285 351 b 43 174 139 351 43 300 b 251 -12 43 36 143 -12 b 426 82 331 -12 382 14 l 422 0 l 608 0 l 608 336 b 342 604 608 522 493 604 b 85 507 203 604 140 561 l 189 396 b 324 450 215 419 253 450 b 422 351 386 450 419 419 z m 422 240 l 422 217 b 307 133 422 167 383 133 b 226 186 254 133 226 153 b 294 240 226 219 247 240 z "},"â":{"ha":678,"x_min":0,"x_max":0,"o":"m 106 694 l 256 694 l 335 785 l 413 694 l 563 694 l 342 994 l 326 994 z m 422 351 l 285 351 b 43 174 139 351 43 300 b 251 -12 43 36 143 -12 b 426 82 331 -12 382 14 l 422 0 l 608 0 l 608 336 b 342 604 608 522 493 604 b 85 507 203 604 140 561 l 189 396 b 324 450 215 419 253 450 b 422 351 386 450 419 419 z m 422 240 l 422 217 b 307 133 422 167 383 133 b 226 186 254 133 226 153 b 294 240 226 219 247 240 z "},"ä":{"ha":678,"x_min":0,"x_max":0,"o":"m 489 703 b 594 808 544 703 594 750 b 489 914 594 867 544 914 b 383 808 435 914 383 867 b 489 703 383 750 435 703 z m 186 703 b 292 808 242 703 292 750 b 186 914 292 867 242 914 b 81 808 132 914 81 867 b 186 703 81 750 132 703 z m 422 351 l 285 351 b 43 174 139 351 43 300 b 251 -12 43 36 143 -12 b 426 82 331 -12 382 14 l 422 0 l 608 0 l 608 336 b 342 604 608 522 493 604 b 85 507 203 604 140 561 l 189 396 b 324 450 215 419 253 450 b 422 351 386 450 419 419 z m 422 240 l 422 217 b 307 133 422 167 383 133 b 226 186 254 133 226 153 b 294 240 226 219 247 240 z "},"à":{"ha":678,"x_min":0,"x_max":0,"o":"m 285 694 l 426 694 l 354 956 l 140 956 z m 422 351 l 285 351 b 43 174 139 351 43 300 b 251 -12 43 36 143 -12 b 426 82 331 -12 382 14 l 422 0 l 608 0 l 608 336 b 342 604 608 522 493 604 b 85 507 203 604 140 561 l 189 396 b 324 450 215 419 253 450 b 422 351 386 450 419 419 z m 422 240 l 422 217 b 307 133 422 167 383 133 b 226 186 254 133 226 153 b 294 240 226 219 247 240 z "},"å":{"ha":678,"x_min":0,"x_max":0,"o":"m 338 658 b 517 824 439 658 517 735 b 338 989 517 914 439 989 b 158 824 236 989 158 914 b 338 658 158 735 236 658 z m 422 351 l 285 351 b 43 174 139 351 43 300 b 251 -12 43 36 143 -12 b 426 82 331 -12 382 14 l 422 0 l 608 0 l 608 336 b 342 604 608 522 493 604 b 85 507 203 604 140 561 l 189 396 b 324 450 215 419 253 450 b 422 351 386 450 419 419 z m 338 761 b 278 824 304 761 278 783 b 338 886 278 864 304 886 b 397 824 371 886 397 864 b 338 761 397 783 371 761 z m 422 240 l 422 217 b 307 133 422 167 383 133 b 226 186 254 133 226 153 b 294 240 226 219 247 240 z "},"ã":{"ha":678,"x_min":0,"x_max":0,"o":"m 217 694 b 257 757 221 736 233 757 b 324 722 278 757 292 742 b 411 694 346 708 375 694 b 565 889 494 694 558 758 l 439 901 b 399 839 435 860 424 839 b 332 874 379 839 364 854 b 244 901 310 888 282 901 b 90 707 163 901 97 838 z m 422 351 l 285 351 b 43 174 139 351 43 300 b 251 -12 43 36 143 -12 b 426 82 331 -12 382 14 l 422 0 l 608 0 l 608 336 b 342 604 608 522 493 604 b 85 507 203 604 140 561 l 189 396 b 324 450 215 419 253 450 b 422 351 386 450 419 419 z m 422 240 l 422 217 b 307 133 422 167 383 133 b 226 186 254 133 226 153 b 294 240 226 219 247 240 z "},"ç":{"ha":665,"x_min":0,"x_max":0,"o":"m 290 -3 l 290 -140 l 338 -140 b 394 -187 371 -140 394 -156 b 344 -235 394 -219 371 -235 b 285 -196 313 -235 296 -217 l 196 -250 b 360 -333 224 -297 274 -333 b 510 -199 435 -333 510 -282 b 386 -54 510 -112 450 -67 l 386 -12 b 622 94 499 -10 565 31 l 496 206 b 376 150 468 178 436 150 b 244 297 292 150 244 211 b 376 440 244 381 292 440 b 492 378 424 440 469 414 l 625 486 b 376 604 565 561 494 604 b 53 297 192 604 53 476 b 290 -3 53 144 150 31 z "},"é":{"ha":747,"x_min":0,"x_max":0,"o":"m 304 694 l 446 694 l 590 956 l 376 956 z m 244 239 l 693 239 b 379 604 707 446 592 604 b 53 297 196 604 53 476 b 400 -12 53 115 189 -12 b 653 75 524 -12 596 25 l 546 190 b 397 143 517 169 465 143 b 244 239 313 143 263 178 z m 242 347 b 381 451 257 418 307 451 b 504 347 454 451 496 413 z "},"ê":{"ha":747,"x_min":0,"x_max":0,"o":"m 144 694 l 294 694 l 374 785 l 451 694 l 601 694 l 381 994 l 365 994 z m 244 239 l 693 239 b 379 604 707 446 592 604 b 53 297 196 604 53 476 b 400 -12 53 115 189 -12 b 653 75 524 -12 596 25 l 546 190 b 397 143 517 169 465 143 b 244 239 313 143 263 178 z m 242 347 b 381 451 257 418 307 451 b 504 347 454 451 496 413 z "},"ë":{"ha":747,"x_min":0,"x_max":0,"o":"m 525 703 b 631 808 581 703 631 750 b 525 914 631 867 581 914 b 419 808 471 914 419 867 b 525 703 419 750 471 703 z m 222 703 b 328 808 278 703 328 750 b 222 914 328 867 278 914 b 117 808 168 914 117 867 b 222 703 117 750 168 703 z m 244 239 l 693 239 b 379 604 707 446 592 604 b 53 297 196 604 53 476 b 400 -12 53 115 189 -12 b 653 75 524 -12 596 25 l 546 190 b 397 143 517 169 465 143 b 244 239 313 143 263 178 z m 242 347 b 381 451 257 418 307 451 b 504 347 454 451 496 413 z "},"è":{"ha":747,"x_min":0,"x_max":0,"o":"m 315 694 l 457 694 l 385 956 l 171 956 z m 244 239 l 693 239 b 379 604 707 446 592 604 b 53 297 196 604 53 476 b 400 -12 53 115 189 -12 b 653 75 524 -12 596 25 l 546 190 b 397 143 517 169 465 143 b 244 239 313 143 263 178 z m 242 347 b 381 451 257 418 307 451 b 504 347 454 451 496 413 z "},"í":{"ha":349,"x_min":0,"x_max":0,"o":"m 97 694 l 239 694 l 383 956 l 169 956 z m 81 0 l 268 0 l 268 592 l 81 592 z "},"î":{"ha":349,"x_min":0,"x_max":0,"o":"m -56 694 l 94 694 l 174 785 l 251 694 l 401 694 l 181 994 l 165 994 z m 81 0 l 268 0 l 268 592 l 81 592 z "},"ï":{"ha":349,"x_min":0,"x_max":0,"o":"m 325 703 b 431 808 381 703 431 750 b 325 914 431 867 381 914 b 219 808 271 914 219 867 b 325 703 219 750 271 703 z m 22 703 b 128 808 78 703 128 750 b 22 914 128 867 78 914 b -83 808 -32 914 -83 867 b 22 703 -83 750 -32 703 z m 81 0 l 268 0 l 268 592 l 81 592 z "},"ì":{"ha":349,"x_min":0,"x_max":0,"o":"m 101 694 l 243 694 l 171 956 l -43 956 z m 81 0 l 268 0 l 268 592 l 81 592 z "},"ñ":{"ha":736,"x_min":0,"x_max":0,"o":"m 257 694 b 297 757 261 736 274 757 b 364 722 318 757 332 742 b 451 694 386 708 415 694 b 606 889 535 694 599 758 l 479 901 b 439 839 475 860 464 839 b 372 874 419 839 404 854 b 285 901 350 888 322 901 b 131 707 203 901 138 838 z m 74 0 l 261 0 l 261 317 b 381 433 261 392 306 433 b 479 329 447 433 479 396 l 479 0 l 667 0 l 667 342 b 444 604 667 510 574 604 b 257 494 363 604 293 565 l 261 592 l 74 592 z "},"ó":{"ha":757,"x_min":0,"x_max":0,"o":"m 313 694 l 454 694 l 599 956 l 385 956 z m 379 -12 b 704 294 563 -12 704 115 b 379 604 704 475 563 604 b 53 294 196 604 53 475 b 379 -12 53 115 196 -12 z m 379 146 b 244 294 296 146 244 207 b 379 443 244 383 296 443 b 513 294 463 443 513 383 b 379 146 513 207 463 146 z "},"ô":{"ha":757,"x_min":0,"x_max":0,"o":"m 149 694 l 299 694 l 378 785 l 456 694 l 606 694 l 385 994 l 369 994 z m 379 -12 b 704 294 563 -12 704 115 b 379 604 704 475 563 604 b 53 294 196 604 53 475 b 379 -12 53 115 196 -12 z m 379 146 b 244 294 296 146 244 207 b 379 443 244 383 296 443 b 513 294 463 443 513 383 b 379 146 513 207 463 146 z "},"ö":{"ha":757,"x_min":0,"x_max":0,"o":"m 529 703 b 635 808 585 703 635 750 b 529 914 635 867 585 914 b 424 808 475 914 424 867 b 529 703 424 750 475 703 z m 226 703 b 332 808 282 703 332 750 b 226 914 332 867 282 914 b 121 808 172 914 121 867 b 226 703 121 750 172 703 z m 379 -12 b 704 294 563 -12 704 115 b 379 604 704 475 563 604 b 53 294 196 604 53 475 b 379 -12 53 115 196 -12 z m 379 146 b 244 294 296 146 244 207 b 379 443 244 383 296 443 b 513 294 463 443 513 383 b 379 146 513 207 463 146 z "},"ò":{"ha":757,"x_min":0,"x_max":0,"o":"m 301 694 l 443 694 l 371 956 l 157 956 z m 379 -12 b 704 294 563 -12 704 115 b 379 604 704 475 563 604 b 53 294 196 604 53 475 b 379 -12 53 115 196 -12 z m 379 146 b 244 294 296 146 244 207 b 379 443 244 383 296 443 b 513 294 463 443 513 383 b 379 146 513 207 463 146 z "},"õ":{"ha":757,"x_min":0,"x_max":0,"o":"m 267 694 b 307 757 271 736 283 757 b 374 722 328 757 342 742 b 461 694 396 708 425 694 b 615 889 544 694 608 758 l 489 901 b 449 839 485 860 474 839 b 382 874 429 839 414 854 b 294 901 360 888 332 901 b 140 707 213 901 147 838 z m 379 -12 b 704 294 563 -12 704 115 b 379 604 704 475 563 604 b 53 294 196 604 53 475 b 379 -12 53 115 196 -12 z m 379 146 b 244 294 296 146 244 207 b 379 443 244 383 296 443 b 513 294 463 443 513 383 b 379 146 513 207 463 146 z "},"š":{"ha":585,"x_min":0,"x_max":0,"o":"m 274 668 l 289 668 l 510 968 l 360 968 l 281 878 l 203 968 l 53 968 z m 300 -12 b 543 185 486 -12 543 76 b 349 369 543 310 435 350 b 231 425 268 388 231 392 b 294 460 231 449 251 460 b 408 415 339 460 381 439 l 508 522 b 293 604 460 572 390 604 b 64 417 167 604 64 550 b 235 228 64 293 154 249 b 368 171 331 203 368 203 b 288 135 368 146 349 135 b 140 197 232 135 181 158 l 31 100 b 300 -12 82 39 163 -12 z "},"ú":{"ha":733,"x_min":0,"x_max":0,"o":"m 297 694 l 439 694 l 583 956 l 369 956 z m 290 -12 b 476 97 372 -12 440 26 l 472 0 l 660 0 l 660 592 l 472 592 l 472 275 b 356 157 472 200 431 157 b 257 263 289 157 257 196 l 257 592 l 69 592 l 69 250 b 290 -12 69 82 161 -12 z "},"û":{"ha":733,"x_min":0,"x_max":0,"o":"m 138 694 l 288 694 l 367 785 l 444 694 l 594 694 l 374 994 l 358 994 z m 290 -12 b 476 97 372 -12 440 26 l 472 0 l 660 0 l 660 592 l 472 592 l 472 275 b 356 157 472 200 431 157 b 257 263 289 157 257 196 l 257 592 l 69 592 l 69 250 b 290 -12 69 82 161 -12 z "},"ü":{"ha":733,"x_min":0,"x_max":0,"o":"m 518 703 b 624 808 574 703 624 750 b 518 914 624 867 574 914 b 413 808 464 914 413 867 b 518 703 413 750 464 703 z m 215 703 b 321 808 271 703 321 750 b 215 914 321 867 271 914 b 110 808 161 914 110 867 b 215 703 110 750 161 703 z m 290 -12 b 476 97 372 -12 440 26 l 472 0 l 660 0 l 660 592 l 472 592 l 472 275 b 356 157 472 200 431 157 b 257 263 289 157 257 196 l 257 592 l 69 592 l 69 250 b 290 -12 69 82 161 -12 z "},"ù":{"ha":733,"x_min":0,"x_max":0,"o":"m 294 694 l 436 694 l 364 956 l 150 956 z m 290 -12 b 476 97 372 -12 440 26 l 472 0 l 660 0 l 660 592 l 472 592 l 472 275 b 356 157 472 200 431 157 b 257 263 289 157 257 196 l 257 592 l 69 592 l 69 250 b 290 -12 69 82 161 -12 z "},"ý":{"ha":681,"x_min":0,"x_max":0,"o":"m 283 694 l 425 694 l 569 956 l 356 956 z m 93 -294 l 281 -294 l 668 592 l 478 592 l 386 364 b 346 211 364 310 346 211 b 304 364 346 211 325 308 l 219 592 l 13 592 l 247 56 z "},"ÿ":{"ha":681,"x_min":0,"x_max":0,"o":"m 490 703 b 596 808 546 703 596 750 b 490 914 596 867 546 914 b 385 808 436 914 385 867 b 490 703 385 750 436 703 z m 188 703 b 293 808 243 703 293 750 b 188 914 293 867 243 914 b 82 808 133 914 82 867 b 188 703 82 750 133 703 z m 93 -294 l 281 -294 l 668 592 l 478 592 l 386 364 b 346 211 364 310 346 211 b 304 364 346 211 325 308 l 219 592 l 13 592 l 247 56 z "},"ž":{"ha":619,"x_min":0,"x_max":0,"o":"m 308 668 l 324 668 l 544 968 l 394 968 l 315 878 l 238 968 l 88 968 z m 32 0 l 553 0 l 553 151 l 313 151 l 575 576 l 575 592 l 64 592 l 64 440 l 289 440 l 32 15 z "},"\r":{"ha":307,"x_min":0,"x_max":0,"o":""},"≤":{"ha":338,"x_min":0,"x_max":0,"o":"m 174 240 b 290 358 236 240 290 289 b 174 475 290 426 236 475 b 56 358 110 475 56 426 b 174 240 56 289 110 240 z "},"≥":{"ha":338,"x_min":0,"x_max":0,"o":"m 174 240 b 290 358 236 240 290 289 b 174 475 290 426 236 475 b 56 358 110 475 56 426 b 174 240 56 289 110 240 z "},"∂":{"ha":338,"x_min":0,"x_max":0,"o":"m 174 240 b 290 358 236 240 290 289 b 174 475 290 426 236 475 b 56 358 110 475 56 426 b 174 240 56 289 110 240 z "},"∑":{"ha":1111,"x_min":0,"x_max":0,"o":"m 660 18 b 1044 474 881 58 1044 231 b 556 957 1044 753 828 957 b 67 474 283 957 67 753 b 183 161 67 349 111 242 b 61 56 135 140 93 106 l 190 -53 b 336 42 225 -3 268 42 b 482 -42 390 42 433 3 b 796 -212 567 -119 657 -212 b 1032 -93 908 -212 979 -167 l 906 17 b 794 -43 883 -12 846 -43 b 660 18 736 -43 697 -18 z m 556 169 b 267 474 383 169 267 297 b 556 783 267 650 383 783 b 844 474 728 783 844 650 b 556 169 844 297 728 169 z "},"∏":{"ha":338,"x_min":0,"x_max":0,"o":"m 174 240 b 290 358 236 240 290 289 b 174 475 290 426 236 475 b 56 358 110 475 56 426 b 174 240 56 289 110 240 z "},"π":{"ha":338,"x_min":0,"x_max":0,"o":"m 174 240 b 290 358 236 240 290 289 b 174 475 290 426 236 475 b 56 358 110 475 56 426 b 174 240 56 289 110 240 z "},"∫":{"ha":338,"x_min":0,"x_max":0,"o":"m 174 240 b 290 358 236 240 290 289 b 174 475 290 426 236 475 b 56 358 110 475 56 426 b 174 240 56 289 110 240 z "},"Ω":{"ha":338,"x_min":0,"x_max":0,"o":"m 174 240 b 290 358 236 240 290 289 b 174 475 290 426 236 475 b 56 358 110 475 56 426 b 174 240 56 289 110 240 z "},"√":{"ha":338,"x_min":0,"x_max":0,"o":"m 174 240 b 290 358 236 240 290 289 b 174 475 290 426 236 475 b 56 358 110 475 56 426 b 174 240 56 289 110 240 z "},"≈":{"ha":338,"x_min":0,"x_max":0,"o":"m 174 240 b 290 358 236 240 290 289 b 174 475 290 426 236 475 b 56 358 110 475 56 426 b 174 240 56 289 110 240 z "},"Δ":{"ha":338,"x_min":0,"x_max":0,"o":"m 174 240 b 290 358 236 240 290 289 b 174 475 290 426 236 475 b 56 358 110 475 56 426 b 174 240 56 289 110 240 z "}," ":{"ha":253,"x_min":0,"x_max":0,"o":""},"◊":{"ha":338,"x_min":0,"x_max":0,"o":"m 174 240 b 290 358 236 240 290 289 b 174 475 290 426 236 475 b 56 358 110 475 56 426 b 174 240 56 289 110 240 z "},"€":{"ha":831,"x_min":0,"x_max":0,"o":"m 117 393 b 115 364 115 383 115 374 b 117 335 115 354 115 344 l 36 335 l 36 215 l 144 215 b 492 -12 201 81 335 -12 b 790 131 632 -12 718 29 l 653 233 b 492 149 621 185 576 149 b 346 215 431 149 381 172 l 519 215 l 519 335 l 301 335 b 300 364 300 344 300 354 b 301 393 300 374 300 383 l 519 393 l 519 513 l 346 513 b 492 578 379 554 431 578 b 646 504 560 578 606 556 l 775 613 b 492 738 703 701 619 738 b 144 513 332 738 201 647 l 36 513 l 36 393 z "}}}
